<svg width="116" height="20" viewBox="0 0 116 20" fill="none" xmlns="http://www.w3.org/2000/svg">
<path d="M10.4477 1.77746C10.3633 1.60748 10.1898 1.5 10 1.5C9.81019 1.5 9.63674 1.60748 9.55226 1.77746L6.88788 7.13799L0.928174 8.00308C0.739471 8.03047 0.582775 8.16281 0.524187 8.34427C0.465599 8.52573 0.515319 8.72471 0.652374 8.85728L4.96229 13.0262L3.94529 18.9149C3.91293 19.1023 3.98968 19.2919 4.14332 19.4039C4.29697 19.516 4.50089 19.5312 4.66947 19.4432L10 16.6592L15.3305 19.4432C15.4991 19.5312 15.703 19.516 15.8567 19.4039C16.0103 19.2919 16.0871 19.1023 16.0547 18.9149L15.0377 13.0262L19.3476 8.85728C19.4847 8.72471 19.5344 8.52573 19.4758 8.34427C19.4172 8.16281 19.2605 8.03047 19.0718 8.00308L13.1121 7.13799L10.4477 1.77746Z" fill="white" stroke="white" stroke-linecap="round" stroke-linejoin="round"/>
<path d="M34.4477 1.77746C34.3633 1.60748 34.1898 1.5 34 1.5C33.8102 1.5 33.6367 1.60748 33.5523 1.77746L30.8879 7.13799L24.9282 8.00308C24.7395 8.03047 24.5828 8.16281 24.5242 8.34427C24.4656 8.52573 24.5153 8.72471 24.6524 8.85728L28.9623 13.0262L27.9453 18.9149C27.9129 19.1023 27.9897 19.2919 28.1433 19.4039C28.297 19.516 28.5009 19.5312 28.6695 19.4432L34 16.6592L39.3305 19.4432C39.4991 19.5312 39.703 19.516 39.8567 19.4039C40.0103 19.2919 40.0871 19.1023 40.0547 18.9149L39.0377 13.0262L43.3476 8.85728C43.4847 8.72471 43.5344 8.52573 43.4758 8.34427C43.4172 8.16281 43.2605 8.03047 43.0718 8.00308L37.1121 7.13799L34.4477 1.77746Z" fill="white" stroke="white" stroke-linecap="round" stroke-linejoin="round"/>
<path d="M58.4477 1.77746C58.3633 1.60748 58.1898 1.5 58 1.5C57.8102 1.5 57.6367 1.60748 57.5523 1.77746L54.8879 7.13799L48.9282 8.00308C48.7395 8.03047 48.5828 8.16281 48.5242 8.34427C48.4656 8.52573 48.5153 8.72471 48.6524 8.85728L52.9623 13.0262L51.9453 18.9149C51.9129 19.1023 51.9897 19.2919 52.1433 19.4039C52.297 19.516 52.5009 19.5312 52.6695 19.4432L58 16.6592L63.3305 19.4432C63.4991 19.5312 63.703 19.516 63.8567 19.4039C64.0103 19.2919 64.0871 19.1023 64.0547 18.9149L63.0377 13.0262L67.3476 8.85728C67.4847 8.72471 67.5344 8.52573 67.4758 8.34427C67.4172 8.16281 67.2605 8.03047 67.0718 8.00308L61.1121 7.13799L58.4477 1.77746Z" fill="white" stroke="white" stroke-linecap="round" stroke-linejoin="round"/>
<path d="M82.4477 1.77746C82.3633 1.60748 82.1898 1.5 82 1.5C81.8102 1.5 81.6367 1.60748 81.5523 1.77746L78.8879 7.13799L72.9282 8.00308C72.7395 8.03047 72.5828 8.16281 72.5242 8.34427C72.4656 8.52573 72.5153 8.72471 72.6524 8.85728L76.9623 13.0262L75.9453 18.9149C75.9129 19.1023 75.9897 19.2919 76.1433 19.4039C76.297 19.516 76.5009 19.5312 76.6695 19.4432L82 16.6592L87.3305 19.4432C87.4991 19.5312 87.703 19.516 87.8567 19.4039C88.0103 19.2919 88.0871 19.1023 88.0547 18.9149L87.0377 13.0262L91.3476 8.85728C91.4847 8.72471 91.5344 8.52573 91.4758 8.34427C91.4172 8.16281 91.2605 8.03047 91.0718 8.00308L85.1121 7.13799L82.4477 1.77746Z" fill="white" stroke="white" stroke-linecap="round" stroke-linejoin="round"/>
<path d="M106.448 1.77746C106.363 1.60748 106.19 1.5 106 1.5C105.81 1.5 105.637 1.60748 105.552 1.77746L102.888 7.13799L96.9282 8.00308C96.7395 8.03047 96.5828 8.16281 96.5242 8.34427C96.4656 8.52573 96.5153 8.72471 96.6524 8.85728L100.962 13.0262L99.9453 18.9149C99.9129 19.1023 99.9897 19.2919 100.143 19.4039C100.297 19.516 100.501 19.5312 100.669 19.4432L106 16.6592L111.331 19.4432C111.499 19.5312 111.703 19.516 111.857 19.4039C112.01 19.2919 112.087 19.1023 112.055 18.9149L111.038 13.0262L115.348 8.85728C115.485 8.72471 115.534 8.52573 115.476 8.34427C115.417 8.16281 115.261 8.03047 115.072 8.00308L109.112 7.13799L106.448 1.77746Z" fill="white" stroke="white" stroke-linecap="round" stroke-linejoin="round"/>
</svg>
